<?xml version="1.0" encoding="utf-8"?>
<svg width="500" zoomAndPan="magnify" viewBox="0 96.061 375 182.845" height="500" preserveAspectRatio="xMidYMid meet" version="1.0" xmlns="http://www.w3.org/2000/svg">
  <defs>
    <clipPath id="aa0f1c9de5">
      <path d="M 0 97.039062 L 375 97.039062 L 375 277 L 0 277 Z M 0 97.039062 " clip-rule="nonzero"/>
    </clipPath>
  </defs>
  <g clip-path="url(#aa0f1c9de5)">
    <path fill="#ffffff" d="M 42.324219 160.621094 C 48.585938 163.820312 47.882812 153.820312 47.613281 150.691406 C 47.382812 148.027344 47.042969 141.46875 44.246094 139.945312 C 39.46875 137.378906 35.980469 156.253906 41.023438 160.292969 C 41.449219 160.292969 41.886719 160.390625 42.324219 160.621094 Z M 64.777344 229.046875 C 65.375 223.984375 65.777344 218.910156 66.054688 213.824219 C 60.121094 214.089844 54.179688 213.617188 48.28125 214.054688 C 48.9375 218.253906 49.960938 222.378906 50.882812 226.539062 C 55.527344 227.71875 60.097656 228.597656 64.777344 229.046875 Z M 66.347656 208.117188 C 66.554688 203.636719 66.722656 199.136719 66.917969 194.65625 C 59.027344 195.023438 47.542969 195.789062 47.503906 205.21875 C 47.503906 206.277344 47.542969 207.347656 47.613281 208.394531 C 53.839844 207.859375 60.097656 208.421875 66.347656 208.117188 Z M 74.492188 157.25 C 74.222656 157.664062 73.957031 158.078125 73.664062 158.480469 C 69.703125 163.613281 65.617188 165.539062 59.199219 166.183594 C 54.214844 166.667969 49.21875 166.925781 44.222656 167.023438 C 44.574219 168.46875 45.351562 169.589844 47.175781 169.917969 C 49.960938 170.394531 52.890625 169.710938 55.589844 169.128906 C 59.1875 168.382812 60.707031 173.898438 57.109375 174.652344 C 52.792969 175.578125 47.589844 176.683594 43.40625 174.640625 C 40.308594 173.128906 38.933594 170.257812 38.484375 167.09375 C 32.417969 167.132812 26.375 167.070312 20.324219 167.132812 C 18.109375 173.726562 16.457031 180.445312 16.398438 187.539062 C 16.324219 196.324219 17.136719 205.085938 17.136719 213.871094 C 26.4375 217.144531 34.984375 221.867188 44.453125 224.75 C 44.488281 224.761719 44.550781 224.789062 44.585938 224.789062 C 42.421875 215.976562 39.675781 205.765625 43.652344 197.589844 C 47.820312 189.023438 62.054688 189.289062 69.898438 188.792969 C 70.636719 188.753906 71.34375 189.082031 71.878906 189.605469 C 71.902344 189.363281 71.9375 189.121094 71.9375 188.863281 C 72.691406 178.375 73.191406 167.738281 74.492188 157.25 Z M 74.636719 235.09375 C 64.804688 235.433594 55.734375 234.15625 46.226562 231.261719 C 35.664062 228.0625 26.144531 223.070312 15.8125 219.445312 C 15.789062 219.445312 15.777344 219.46875 15.753906 219.480469 C 8.445312 234.425781 22.148438 241.761719 33.851562 247.117188 C 46.800781 252.996094 60.171875 259.078125 74.441406 255.308594 C 74.492188 248.566406 74.601562 241.835938 74.636719 235.09375 Z M 76.789062 130.589844 C 78.175781 124.625 80.398438 119.003906 82.574219 113.332031 C 78.359375 114.003906 74.101562 114.585938 69.859375 115.144531 C 71.511719 117.75 72.183594 119.917969 72.582031 121.328125 C 72.996094 123.347656 72.910156 124.152344 72.523438 124.273438 C 72.144531 124.382812 71.5625 123.773438 70.699219 122.058594 C 69.847656 120.660156 68.851562 118.382812 66.722656 115.558594 C 63.792969 115.9375 60.839844 116.300781 57.910156 116.703125 C 59.320312 119.902344 60.523438 122.667969 61.519531 125.050781 C 62.761719 128.25 63.625 130.78125 64.269531 132.730469 C 65.519531 136.613281 65.75 138.167969 65.386719 138.328125 C 65.023438 138.460938 64.109375 137.148438 62.382812 133.472656 C 61.507812 131.636719 60.464844 129.199219 59.089844 126.074219 C 57.910156 123.578125 56.535156 120.585938 54.957031 117.105469 C 52.464844 117.421875 49.996094 117.785156 47.503906 118.152344 C 48.792969 120.34375 49.875 122.242188 50.800781 123.871094 C 51.953125 126.097656 52.792969 127.886719 53.375 129.238281 C 54.578125 131.976562 54.8125 133.144531 54.445312 133.3125 C 54.082031 133.484375 53.230469 132.667969 51.589844 130.1875 C 50.773438 128.96875 49.789062 127.316406 48.5 125.199219 C 47.359375 123.382812 46.007812 121.195312 44.453125 118.625 C 42.875 118.871094 41.316406 119.125 39.738281 119.40625 C 39.3125 119.464844 38.933594 119.464844 38.570312 119.394531 C 38.558594 119.40625 38.535156 119.441406 38.496094 119.476562 C 39.03125 120.136719 39.503906 120.742188 39.847656 121.253906 C 40.1875 121.960938 40.382812 122.558594 40.503906 123.007812 C 40.710938 123.917969 40.527344 124.34375 40.175781 124.515625 C 39.808594 124.660156 39.3125 124.515625 38.703125 123.957031 C 38.398438 123.675781 38.070312 123.273438 37.683594 122.765625 C 37.425781 122.53125 37.171875 122.265625 36.890625 121.960938 C 30.863281 132.132812 28.503906 145.53125 24.371094 156.179688 C 23.714844 157.90625 23.046875 159.660156 22.378906 161.410156 C 26.621094 161.398438 30.863281 161.460938 35.09375 161.496094 C 32.441406 156.640625 32.550781 149.65625 33.550781 144.753906 C 34.617188 139.542969 40.671875 130.34375 47.117188 135.019531 C 52.660156 139.007812 53.496094 147.699219 53.460938 154 C 53.4375 156.460938 53.304688 158.84375 52.464844 161.058594 C 61.996094 160.328125 68.609375 158.90625 72.011719 149.171875 C 74.152344 143.085938 75.34375 136.84375 76.789062 130.589844 Z M 89.335938 103.425781 C 76.886719 103.378906 63.929688 104.71875 52.804688 108.453125 C 49.703125 109.5 47.078125 111.019531 44.757812 112.832031 C 58.578125 110.703125 72.511719 109.355469 86.285156 106.992188 C 86.441406 106.945312 86.574219 106.945312 86.722656 106.945312 C 87.460938 105.65625 88.324219 104.472656 89.335938 103.425781 Z M 111.472656 259.445312 C 110.039062 253.726562 110.414062 247.8125 112.117188 242.296875 C 101.394531 242.917969 90.953125 245.679688 80.253906 246.289062 C 80.191406 249.210938 80.179688 252.105469 80.15625 255.015625 C 81.796875 254.882812 82.867188 256.425781 82.988281 257.875 C 83.28125 260.976562 104.238281 259.894531 111.472656 259.445312 Z M 154.722656 264.300781 C 161.496094 255.914062 164.21875 239.171875 158.457031 229.777344 C 149.59375 219.53125 136.050781 219.140625 126.316406 228.949219 C 118.714844 236.617188 111.789062 252.117188 118.582031 262.511719 C 125.753906 273.476562 146.335938 274.691406 154.722656 264.300781 Z M 162.855469 226.136719 C 162.855469 226.148438 162.867188 226.175781 162.867188 226.175781 C 162.359375 222.230469 161.007812 218.726562 158.152344 216.914062 C 152.4375 213.300781 145.875 212.023438 139.238281 211.488281 C 128.515625 214.929688 121.742188 220.054688 119.046875 229.203125 C 129.914062 215.5625 148.984375 209.527344 162.820312 226.078125 C 162.832031 226.101562 162.832031 226.113281 162.855469 226.136719 Z M 169.007812 201.324219 C 169.46875 199 169.785156 196.628906 169.992188 194.207031 C 157.289062 193.160156 137.5 192.261719 126.863281 199.390625 C 114.679688 207.519531 108.589844 223.121094 105.476562 237.1875 C 107.679688 236.894531 109.890625 236.710938 112.089844 236.578125 C 112.820312 222.816406 118.375 213.957031 131.699219 208.128906 C 133.414062 207.386719 135.164062 206.742188 136.953125 206.144531 C 137.316406 205.890625 137.800781 205.730469 138.398438 205.71875 C 148.21875 202.726562 158.796875 201.898438 169.007812 201.324219 Z M 170.273438 188.511719 C 170.441406 179.457031 169.589844 170.089844 169.859375 161.496094 C 169.90625 159.914062 169.957031 158.332031 169.992188 156.75 C 169.445312 155.8125 169.457031 154.5625 170.054688 153.625 C 170.164062 142.816406 169.492188 131.964844 165.214844 121.898438 C 165.019531 121.449219 164.972656 121.011719 164.984375 120.585938 C 155.378906 103.125 123.917969 106.019531 106.5 104.316406 C 103.910156 104.046875 101.222656 103.867188 98.5 103.707031 C 98.195312 104.183594 97.722656 104.609375 97.078125 104.875 C 88.375 108.355469 87.316406 124.492188 85.261719 132.363281 C 82.308594 143.609375 80.398438 154.839844 79.378906 166.425781 C 77.53125 187.332031 75.574219 208.359375 74.769531 229.351562 C 75.464844 229.339844 76.121094 229.339844 76.8125 229.300781 C 78.199219 229.203125 79.050781 229.960938 79.402344 230.957031 C 79.988281 231.417969 80.386719 232.113281 80.363281 233.109375 C 80.363281 235.582031 80.328125 238.074219 80.316406 240.582031 C 86.746094 240.191406 93.101562 239.074219 99.472656 238.0625 C 102.402344 223.386719 108.894531 204.550781 121.839844 195.863281 C 134.96875 187.074219 154.953125 187.246094 170.273438 188.511719 Z M 172.777344 254.234375 C 168.921875 238.746094 172.253906 222.644531 169.25 207.03125 C 164.167969 207.3125 159.039062 207.652344 153.984375 208.324219 C 158.25 209.710938 162.128906 211.851562 164.679688 215.222656 C 170.164062 222.5 168.984375 234.167969 167.816406 242.675781 C 167.769531 243.164062 167.585938 243.5625 167.34375 243.867188 C 167.292969 247.496094 166.769531 251.167969 165.835938 254.675781 C 168.144531 254.480469 170.441406 254.359375 172.777344 254.234375 Z M 175.523438 169.515625 C 177.589844 169.515625 180.726562 169.515625 183.390625 169.515625 C 182.757812 165.742188 182.28125 161.933594 182.074219 158.078125 C 180.035156 158.078125 177.601562 158.078125 175.679688 158.078125 C 175.644531 159.222656 175.609375 160.351562 175.558594 161.496094 C 175.476562 164.125 175.488281 166.804688 175.523438 169.515625 Z M 190.015625 203.699219 C 187.863281 196.105469 187.167969 188.109375 185.527344 180.394531 C 185.140625 178.644531 184.773438 176.902344 184.433594 175.175781 C 184.25 175.210938 184.070312 175.222656 183.863281 175.222656 C 181.492188 175.222656 177.675781 175.222656 175.679688 175.222656 C 175.984375 184.8125 176.351562 194.570312 174.34375 203.566406 C 174.378906 203.710938 174.40625 203.867188 174.441406 204.015625 C 179.621094 203.746094 184.824219 203.699219 190.015625 203.699219 Z M 222.265625 173.570312 C 215.761719 174.140625 209.085938 174.273438 202.765625 172.71875 C 203.277344 173.59375 203.773438 174.445312 204.273438 175.320312 C 204.648438 175.964844 205.050781 176.597656 205.453125 177.207031 C 205.5625 177.207031 205.671875 177.207031 205.792969 177.230469 C 212.84375 178.582031 218.640625 177.425781 222.265625 173.570312 Z M 225.582031 167.558594 C 225.789062 166.828125 225.960938 166.085938 226.09375 165.304688 C 218.859375 165.074219 207.738281 162.824219 202.339844 166.730469 C 209.609375 169.175781 218.046875 168.371094 225.582031 167.558594 Z M 259.9375 164.699219 C 257.117188 162.957031 253.6875 162.898438 250.648438 165.757812 C 244.425781 171.597656 244.230469 180.394531 245.09375 188.378906 C 245.859375 188.339844 246.613281 188.28125 247.378906 188.246094 C 247.320312 179.09375 249.675781 166.996094 259.9375 164.699219 Z M 256.207031 148.5625 C 259.097656 144.753906 261.382812 142.246094 263.609375 138.949219 C 256.714844 138.523438 249.75 137.378906 242.882812 137.597656 C 235.636719 139.070312 228.902344 141.796875 222.460938 146.117188 C 221.609375 146.859375 220.734375 147.820312 219.832031 148.5625 C 231.878906 148.949219 243.855469 148.5625 256.191406 148.5625 C 256.191406 148.5625 256.191406 148.5625 256.207031 148.5625 Z M 264.410156 187.160156 C 264.910156 184.738281 265.394531 181.613281 265.515625 178.484375 C 265.199219 173.058594 263.851562 168.335938 259.574219 170.710938 C 253.882812 173.859375 253.042969 181.820312 253.082031 187.878906 C 256.851562 187.636719 260.640625 187.378906 264.410156 187.160156 Z M 293.550781 227.195312 C 293.683594 215.902344 296.285156 204.832031 306.363281 199.660156 C 294.265625 199.914062 282.21875 200.632812 270.34375 202.128906 C 253.617188 204.246094 237.09375 207.761719 220.257812 208.761719 C 205.332031 209.648438 190.367188 208.957031 175.4375 209.699219 C 176.933594 221.527344 175.511719 233.621094 176.957031 245.402344 C 216.394531 243.855469 254.757812 233.753906 293.550781 227.195312 Z M 287.570312 145.53125 C 294.800781 145.582031 302.035156 145.445312 309.269531 145.433594 C 301.355469 139.570312 290.730469 137.378906 280.25 136.539062 C 280.191406 136.613281 280.140625 136.683594 280.09375 136.769531 C 278.378906 138.898438 275.558594 142.003906 275.375 145.09375 C 275.605469 145.09375 275.886719 145.128906 276.25 145.203125 C 280.019531 145.238281 283.800781 145.507812 287.570312 145.53125 Z M 316.039062 230.457031 C 317.789062 226.917969 319.152344 222.328125 318.140625 218.386719 C 317.691406 216.988281 316.355469 212.230469 313.925781 213.554688 C 311.917969 214.6875 310.375 216.5 309.207031 218.496094 C 307.019531 222.28125 304.855469 228.035156 306.167969 232.476562 C 308.089844 238.902344 314.238281 234.121094 316.039062 230.457031 Z M 318.8125 208.871094 C 319.015625 208.699219 319.261719 208.566406 319.566406 208.46875 C 318.496094 206.679688 317.242188 204.988281 315.785156 203.441406 C 315.515625 203.164062 315.320312 202.859375 315.199219 202.554688 C 309.863281 203.699219 304.867188 206 302.328125 210.757812 C 299.714844 215.625 299.347656 220.785156 299.277344 226.136719 C 299.835938 227.027344 299.980469 228.207031 299.335938 229.070312 C 298.972656 229.546875 298.605469 230.019531 298.242188 230.480469 C 298.132812 231.457031 297.5 232.308594 296.199219 232.515625 C 296.175781 232.515625 296.140625 232.539062 296.113281 232.539062 C 295.773438 232.746094 295.410156 232.902344 295.03125 232.988281 C 296.976562 235.351562 299.578125 236.859375 302.472656 237.550781 C 301.5625 236.359375 300.855469 234.898438 300.492188 233.148438 C 298.960938 225.773438 302.4375 215.84375 308.015625 210.855469 C 310.554688 208.589844 313.535156 207.007812 317 207.980469 C 317.65625 208.164062 318.25 208.492188 318.8125 208.871094 Z M 328.558594 185.652344 C 329.691406 185.628906 330.796875 185.617188 331.914062 185.589844 C 329.253906 181.625 328.316406 176.367188 329.09375 171.476562 C 327.382812 175.953125 326.929688 181.175781 328.558594 185.652344 Z M 336.292969 206.109375 C 335.148438 203.90625 333.726562 201.984375 331.078125 201.324219 L 331.0625 201.3125 C 329.789062 201.324219 328.488281 201.351562 327.222656 201.386719 C 325.519531 201.421875 323.648438 201.496094 321.714844 201.65625 C 323.003906 203.308594 324.171875 205.183594 325.15625 207.15625 C 328.828125 206.496094 332.546875 206.207031 336.292969 206.109375 Z M 343.125 173.640625 C 343.195312 170.488281 342.371094 166.230469 339.148438 164.710938 C 339.085938 164.746094 339.050781 164.808594 339.003906 164.84375 C 335.636719 166.960938 334.433594 170.636719 334.699219 174.503906 C 334.84375 176.71875 335.246094 182.511719 337.664062 183.667969 C 340.605469 185.09375 343.085938 175.246094 343.125 173.640625 Z M 331.941406 159.609375 C 342.78125 153.988281 350.355469 167.230469 348.496094 176.527344 C 348.035156 178.8125 346.539062 182.464844 344.425781 185.359375 C 345.042969 185.359375 345.675781 185.347656 346.320312 185.347656 C 351.570312 178.351562 352.300781 162.179688 345.371094 156.363281 C 338.078125 150.230469 327.539062 150.800781 318.457031 150.3125 C 317.984375 150.835938 317.304688 151.191406 316.367188 151.191406 C 306.777344 151.054688 297.160156 151.410156 287.570312 151.238281 C 283.082031 151.164062 276.617188 152.175781 272.3125 150.617188 C 266.464844 148.476562 270.308594 140.957031 273.539062 136.148438 C 272.882812 136.136719 272.214844 136.101562 271.546875 136.078125 C 271.535156 136.769531 271.316406 137.414062 270.878906 137.925781 C 270.839844 137.988281 270.816406 138.035156 270.78125 138.097656 C 267.4375 143.011719 264.300781 148.195312 259.875 152.25 C 259.269531 152.808594 258.601562 153.015625 257.957031 153.015625 C 257.507812 153.34375 256.910156 153.550781 256.191406 153.550781 C 242.859375 153.550781 229.765625 154.976562 216.734375 153.914062 C 210.851562 153.429688 197.5625 150.546875 192.433594 155.339844 C 194.183594 158.003906 195.835938 160.71875 197.441406 163.457031 C 205.015625 155.949219 219.90625 160.574219 229.316406 159.511719 C 230.796875 159.34375 232.246094 160.9375 232.171875 162.375 C 231.34375 176.625 222.652344 183.707031 210.179688 183.375 C 211.726562 185.191406 213.28125 186.964844 214.8125 188.816406 C 215.433594 188.816406 216.101562 188.828125 216.855469 188.828125 C 220.027344 188.816406 224.40625 188.65625 229.425781 189 C 230.457031 183.742188 231.675781 178.910156 233.011719 175.515625 C 234.53125 172.011719 235.820312 170.050781 236.195312 170.234375 C 236.621094 170.429688 236.085938 172.691406 235.175781 176.195312 C 234.445312 179.496094 233.65625 183.972656 232.683594 189.058594 C 234.933594 188.960938 237.167969 188.828125 239.417969 188.695312 C 238.214844 176.828125 240.378906 160.195312 254.660156 157.835938 C 264.046875 156.289062 268.363281 162.859375 269.992188 170.792969 C 271.511719 175.589844 271.28125 182.109375 271.074219 186.773438 C 272.664062 186.699219 274.292969 186.636719 275.898438 186.566406 C 275.921875 184.179688 275.921875 181.683594 275.8125 179.09375 C 275.558594 172.253906 274.269531 166.253906 272.324219 162.3125 C 271.910156 161.300781 271.339844 160.488281 270.964844 159.683594 C 270.476562 158.964844 270.074219 158.308594 269.734375 157.796875 C 268.980469 156.75 268.640625 156.105469 268.789062 155.949219 C 268.957031 155.777344 269.601562 156.144531 270.636719 156.921875 C 271.144531 157.324219 271.71875 157.933594 272.386719 158.613281 C 272.96875 159.355469 273.722656 160.183594 274.304688 161.230469 C 275.605469 163.226562 276.785156 165.878906 277.601562 168.921875 C 278.390625 171.949219 278.878906 175.382812 279.023438 178.949219 C 279.144531 181.574219 279.109375 184.09375 278.988281 186.457031 C 283.09375 186.296875 287.226562 186.1875 291.375 186.1875 C 301.828125 186.164062 312.269531 185.980469 322.726562 185.761719 C 320.34375 176.332031 323.003906 164.222656 331.941406 159.609375 Z M 351.21875 217.207031 C 351.195312 215.429688 351.097656 213.652344 350.988281 211.902344 C 343.113281 211.886719 335.113281 211.378906 327.34375 212.59375 C 327.941406 214.566406 328.378906 216.585938 328.585938 218.628906 C 335.148438 218.859375 342.273438 219.773438 348.546875 217.949219 C 349.421875 217.679688 350.320312 217.414062 351.21875 217.207031 Z M 367.035156 194.074219 C 366.878906 193.027344 366.707031 191.992188 366.535156 190.945312 C 360.3125 190.910156 354.089844 190.945312 347.863281 191.019531 C 347.851562 191.019531 347.804688 191.019531 347.765625 191.019531 C 327.734375 191.273438 307.699219 191.894531 287.667969 191.894531 C 281.257812 191.894531 274.949219 192.355469 268.664062 192.929688 C 268.445312 192.964844 268.214844 193.003906 268.007812 192.988281 C 262.015625 193.539062 256.023438 194.183594 249.945312 194.621094 C 237.996094 195.484375 226.046875 195.265625 214.082031 195.230469 C 212.988281 195.230469 212.246094 194.71875 211.785156 194.011719 C 211.652344 193.902344 211.496094 193.746094 211.359375 193.574219 C 207.25 188.207031 202.765625 184.179688 199.335938 178.203125 C 195.835938 172.085938 192.433594 165.9375 188.617188 159.988281 C 188.398438 159.988281 188.167969 159.988281 187.921875 159.988281 C 188.566406 167.507812 190.246094 174.835938 191.738281 182.257812 C 193.175781 189.351562 193.746094 196.605469 195.898438 203.515625 C 195.910156 203.578125 195.910156 203.636719 195.933594 203.699219 C 205.222656 203.734375 214.484375 203.734375 223.722656 202.761719 C 240.558594 200.972656 257.105469 197.820312 273.941406 195.972656 C 304.332031 192.660156 334.773438 194.109375 365.453125 194.253906 C 365.988281 194.207031 366.511719 194.144531 367.035156 194.074219 Z M 372.6875 193.648438 C 374.707031 194.65625 375.15625 197.992188 372.722656 198.820312 C 372.261719 199.5 371.484375 200 370.378906 200 C 368.859375 200 367.316406 200 365.769531 199.976562 C 357.308594 201.058594 348.59375 201.191406 339.960938 201.242188 C 340.800781 202.46875 341.53125 203.808594 342.152344 205.21875 C 342.285156 205.523438 342.371094 205.804688 342.417969 206.109375 C 345.75 206.144531 349.105469 206.207031 352.410156 206.195312 C 352.835938 205.925781 353.347656 205.753906 353.980469 205.753906 C 356.738281 205.753906 360.046875 205.671875 362.402344 207.386719 C 365.492188 209.636719 365.40625 213.445312 364.578125 216.839844 C 364.25 218.058594 363.070312 219.042969 361.820312 219.042969 C 360.652344 219.042969 358.453125 219.042969 356.910156 219.042969 C 356.421875 220.6875 355.304688 221.964844 352.921875 222.632812 C 344.800781 224.898438 336.839844 224.457031 328.558594 224.324219 C 328 229.3125 325.898438 233.988281 321.679688 237.492188 C 311.664062 245.777344 295.3125 246.558594 288.710938 233.816406 C 251.902344 240.363281 215.382812 249.476562 177.90625 251.070312 C 178.269531 252.777344 178.683594 254.46875 179.242188 256.160156 C 179.851562 257.984375 178.269531 259.6875 176.484375 259.785156 C 172.519531 259.96875 168.558594 260.125 164.605469 260.492188 C 164.316406 260.503906 164.070312 260.492188 163.839844 260.441406 C 161.714844 265.273438 158.664062 269.351562 154.722656 271.84375 C 143.152344 279.21875 120.796875 279.765625 113.660156 265.382812 C 113.574219 265.273438 113.539062 265.140625 113.476562 265.015625 C 108.261719 265.347656 103.058594 264.675781 97.855469 265.042969 C 94.429688 265.285156 90.925781 265.882812 87.488281 265.625 C 83.316406 265.347656 79.742188 264.261719 78.140625 260.964844 C 77.796875 261.027344 77.433594 261.0625 77.09375 261.097656 C 76.484375 261.207031 75.949219 261.113281 75.476562 260.941406 C 57.644531 265.492188 39.214844 256.683594 23.519531 248.613281 C 10.523438 241.945312 3.875 229.339844 11.398438 215.527344 C 11.507812 203.785156 9.527344 191.859375 11.242188 180.226562 C 11.644531 177.5 12.25 174.847656 12.957031 172.242188 C 11.011719 172.085938 8.980469 172.511719 7.023438 172.316406 C 4.507812 172.070312 2.257812 170.929688 1.324219 168.445312 C 0.0078125 164.964844 2.160156 160.023438 5.152344 157.628906 C 5.054688 154.574219 4.691406 151.589844 4.105469 148.597656 C 3.425781 144.996094 8.921875 143.476562 9.625 147.089844 C 10.367188 150.933594 10.878906 154.863281 10.902344 158.808594 C 10.914062 159.320312 10.804688 159.746094 10.621094 160.121094 C 10.441406 160.753906 10.027344 161.339844 9.261719 161.742188 C 8.554688 162.105469 5.648438 165.707031 6.746094 166.582031 C 7.414062 167.09375 9.785156 166.667969 10.574219 166.632812 C 11.949219 166.558594 13.246094 166.558594 14.585938 166.730469 C 17.296875 158.503906 20.820312 150.546875 23.265625 142.160156 C 28.734375 123.617188 35.203125 105.703125 56.195312 101.710938 C 65.738281 99.875 76.035156 98 85.699219 97.648438 C 99.132812 97.171875 112.785156 99.023438 126.144531 100.300781 C 144.851562 102.089844 167.269531 102.683594 172.582031 124.457031 C 172.714844 124.992188 172.691406 125.453125 172.582031 125.890625 C 175.074219 134.480469 175.753906 143.378906 175.753906 152.371094 C 178.453125 152.371094 181.164062 152.371094 183.863281 152.371094 C 184.96875 152.371094 185.746094 152.855469 186.210938 153.527344 C 186.28125 153.5625 186.34375 153.625 186.414062 153.660156 C 191.289062 145.800781 202.972656 146.992188 210.960938 147.699219 C 211.070312 147.648438 211.117188 147.5625 211.214844 147.515625 C 211.324219 147.453125 211.421875 147.371094 211.53125 147.320312 C 211.554688 147.296875 211.554688 147.257812 211.578125 147.246094 C 214.011719 145.042969 216.503906 143.148438 219.019531 141.429688 C 223.601562 137.378906 227.941406 133.484375 235.003906 132.546875 C 237.191406 132.269531 239.355469 132.132812 241.558594 132.0625 C 248.765625 130.550781 256.375 130.101562 264.542969 130.285156 C 281.78125 130.6875 303.980469 131.257812 316.878906 144.523438 C 316.964844 144.523438 317.011719 144.496094 317.097656 144.523438 C 328.449219 145.300781 345.46875 144.15625 352.242188 155.71875 C 356.945312 163.734375 357.320312 176.355469 352.96875 185.273438 C 357.492188 185.226562 362.027344 185.214844 366.574219 185.226562 C 366.9375 185.226562 367.242188 185.3125 367.546875 185.410156 C 367.984375 185.152344 368.480469 184.984375 368.957031 184.984375 C 370.609375 184.984375 371.65625 186.296875 371.8125 187.84375 C 371.996094 189.800781 372.394531 191.722656 372.6875 193.648438 Z M 359.375 212.410156 C 359.363281 212.328125 359.339844 212.265625 359.339844 212.230469 C 359.316406 212.203125 359.316406 212.191406 359.304688 212.15625 C 359.28125 212.132812 359.28125 212.132812 359.265625 212.121094 C 359.242188 212.070312 359.230469 212.070312 359.207031 212.058594 C 359.132812 211.996094 359.0625 211.960938 358.988281 211.925781 C 358.925781 211.925781 358.183594 211.679688 358.003906 211.632812 C 357.445312 211.523438 357.589844 211.558594 357.1875 211.523438 C 357.042969 211.523438 356.882812 211.523438 356.714844 211.5 C 356.789062 212.121094 356.859375 212.726562 356.945312 213.335938 C 357.734375 213.335938 358.585938 213.335938 359.414062 213.335938 C 359.414062 213.140625 359.316406 212.265625 359.375 212.410156 " fill-opacity="1" fill-rule="nonzero"/>
  </g>
  <path fill="#ffffff" d="M 320.414062 162.3125 C 320.441406 162.945312 320.402344 163.53125 320.367188 164.125 C 320.28125 165.28125 320.148438 166.414062 319.976562 167.507812 C 319.808594 168.617188 319.601562 169.710938 319.359375 170.769531 C 319.234375 171.304688 319.089844 171.839844 318.921875 172.386719 C 318.824219 172.65625 318.75 172.921875 318.59375 173.253906 C 318.519531 173.398438 318.484375 173.519531 318.386719 173.703125 C 318.277344 173.921875 318.140625 174.105469 318.007812 174.273438 L 317.910156 174.394531 C 316.136719 175.917969 314.386719 176.28125 312.769531 176.695312 C 311.152344 177.035156 309.632812 177.230469 308.199219 177.367188 C 305.339844 177.609375 302.863281 177.644531 300.796875 177.667969 C 296.675781 177.632812 294.328125 177.695312 294.253906 177.367188 C 294.15625 177.023438 296.589844 176.320312 300.660156 175.820312 C 302.703125 175.550781 305.183594 175.285156 307.894531 174.847656 C 309.242188 174.613281 310.679688 174.359375 312.101562 173.96875 C 313.460938 173.605469 314.910156 173.058594 315.722656 172.316406 L 315.722656 172.289062 C 315.734375 172.277344 315.785156 172.144531 315.820312 172.070312 C 315.867188 171.914062 315.929688 171.683594 316.003906 171.476562 C 316.125 171.0625 316.234375 170.574219 316.355469 170.089844 C 316.539062 169.113281 316.707031 168.105469 316.867188 167.070312 C 317 166.023438 317.109375 164.964844 317.167969 163.90625 C 317.207031 163.394531 317.230469 162.847656 317.230469 162.347656 C 317.230469 162.105469 317.207031 161.875 317.183594 161.644531 L 317.167969 161.507812 C 317.074219 161.472656 316.902344 161.398438 316.730469 161.375 C 316.234375 161.300781 315.699219 161.230469 315.128906 161.207031 C 314.007812 161.144531 312.84375 161.167969 311.699219 161.207031 C 310.542969 161.289062 309.402344 161.339844 308.285156 161.398438 L 307.445312 161.460938 L 306.519531 161.496094 C 305.902344 161.472656 305.402344 161.410156 304.832031 161.375 C 300.492188 161.058594 296.550781 160.765625 293.308594 160.367188 C 286.828125 159.511719 282.828125 158.769531 282.828125 158.332031 C 282.863281 157.871094 286.925781 157.820312 293.476562 158.101562 C 296.710938 158.175781 300.5625 158.296875 304.867188 158.429688 C 305.378906 158.441406 305.925781 158.46875 306.449219 158.480469 L 307.214844 158.429688 L 308.050781 158.34375 C 309.171875 158.234375 310.351562 158.136719 311.554688 158.066406 C 312.746094 158.003906 313.984375 157.957031 315.296875 158.003906 C 315.953125 158.042969 316.636719 158.101562 317.363281 158.234375 C 317.753906 158.34375 318.09375 158.394531 318.566406 158.613281 C 318.785156 158.710938 319.03125 158.808594 319.320312 159.050781 C 319.453125 159.148438 319.589844 159.257812 319.722656 159.390625 L 319.734375 159.417969 C 319.855469 159.574219 319.90625 159.660156 319.929688 159.707031 C 319.929688 159.707031 319.929688 159.707031 319.941406 159.71875 L 319.964844 159.757812 L 319.976562 159.816406 L 320.039062 159.914062 C 320.148438 160.097656 320.402344 161.144531 320.378906 161.328125 C 320.402344 161.679688 320.441406 162.007812 320.414062 162.3125 " fill-opacity="1" fill-rule="nonzero"/>
  <path fill="#ffffff" d="M 282.109375 223.582031 C 282.109375 223.789062 281.199219 224.058594 279.582031 224.347656 C 278.753906 224.457031 277.769531 224.617188 276.628906 224.800781 C 275.484375 225.03125 274.171875 225.273438 272.75 225.566406 C 269.84375 226.136719 266.464844 226.878906 262.636719 227.769531 C 258.792969 228.667969 254.46875 229.410156 249.96875 229.984375 C 240.925781 231.089844 232.816406 231.699219 226.992188 232.441406 C 225.523438 232.636719 224.210938 232.78125 223.054688 232.917969 C 221.886719 233.085938 220.878906 233.257812 220.066406 233.355469 C 218.410156 233.550781 217.464844 233.550781 217.402344 233.34375 C 217.367188 233.121094 218.203125 232.710938 219.761719 232.136719 C 220.5625 231.84375 221.511719 231.503906 222.652344 231.164062 C 223.808594 230.894531 225.121094 230.578125 226.59375 230.214844 C 232.441406 228.863281 240.644531 227.890625 249.566406 226.808594 C 254.015625 226.210938 258.199219 225.578125 262.027344 224.871094 C 265.882812 224.15625 269.429688 223.605469 272.398438 223.316406 C 273.90625 223.207031 275.253906 223.109375 276.433594 223.011719 C 277.636719 222.972656 278.683594 223.046875 279.519531 223.082031 C 281.175781 223.179688 282.109375 223.351562 282.109375 223.582031 " fill-opacity="1" fill-rule="nonzero"/>
  <path fill="#ffffff" d="M 266.429688 206.910156 C 266.527344 207.3125 261.917969 208.796875 254.320312 210.609375 C 246.6875 212.289062 236.015625 213.992188 224.269531 215.464844 C 218.324219 216.246094 212.527344 216.453125 207.386719 216.367188 C 202.230469 216.304688 197.625 216.109375 193.78125 216.171875 C 186.148438 216.148438 181.320312 216.949219 181.238281 216.441406 C 181.238281 216.0625 185.820312 214.492188 193.683594 213.910156 C 201.527344 213.167969 212.285156 213.871094 223.855469 212.265625 C 235.636719 210.816406 246.238281 209.464844 253.90625 208.382812 C 261.53125 207.15625 266.296875 206.4375 266.429688 206.910156 " fill-opacity="1" fill-rule="nonzero"/>
  <path fill="#ffffff" d="M 155.816406 165.914062 C 162.296875 167.703125 160.375 177.535156 160.304688 182.378906 C 160.304688 183.609375 159.464844 184.835938 158.210938 185.140625 C 155.453125 185.824219 152.667969 185.726562 149.835938 185.714844 C 149.300781 185.714844 148.851562 185.554688 148.464844 185.347656 C 147.273438 185.191406 146.179688 184.386719 146.070312 182.925781 C 145.863281 182.511719 145.742188 182.027344 145.800781 181.417969 C 146.203125 177.570312 145.667969 173.398438 147.34375 169.785156 C 148.804688 166.582031 152.402344 164.976562 155.816406 165.914062 Z M 152.949219 171.574219 L 152.9375 171.574219 C 152.367188 172.15625 152.160156 173.019531 152.023438 173.859375 C 152.160156 174.175781 152.230469 174.566406 152.230469 175.003906 C 152.195312 176.683594 152.023438 178.351562 151.890625 180.03125 C 152.863281 180.03125 153.835938 180.03125 154.808594 179.933594 C 155.125 176.941406 155.625 173.300781 154.066406 171.269531 C 154.007812 171.207031 153.070312 171.574219 152.949219 171.574219 " fill-opacity="1" fill-rule="nonzero"/>
  <path fill="#ffffff" d="M 153.300781 130.796875 C 154.515625 122.726562 150.082031 119.878906 144.292969 118.734375 C 144.414062 119.101562 144.550781 119.476562 144.660156 119.832031 C 145.035156 120.78125 145.398438 121.632812 145.703125 122.398438 C 146.3125 123.992188 146.808594 125.234375 147.015625 126.269531 C 147.480469 128.347656 147.355469 129.164062 146.980469 129.273438 C 146.601562 129.371094 146.007812 128.738281 145.132812 127.011719 C 144.695312 126.132812 144.027344 125.003906 143.308594 123.480469 C 142.933594 122.703125 142.53125 121.851562 142.070312 120.890625 C 141.765625 120.097656 141.449219 119.199219 141.121094 118.25 C 139.40625 118.078125 137.65625 117.980469 135.941406 117.882812 C 138.035156 120.609375 139.152344 123.347656 140.039062 125.5625 C 141.15625 128.519531 141.863281 130.84375 142.445312 132.570312 C 143.003906 134.324219 143.417969 135.503906 143.625 136.308594 C 143.84375 137.109375 143.84375 137.511719 143.648438 137.597656 C 143.480469 137.695312 143.175781 137.464844 142.640625 136.804688 C 142.105469 136.148438 141.386719 135.03125 140.585938 133.339844 C 139.722656 131.660156 138.8125 129.394531 137.59375 126.574219 C 136.40625 123.847656 134.859375 120.535156 131.90625 117.617188 C 131.773438 117.617188 131.640625 117.617188 131.53125 117.59375 C 128.804688 117.300781 124.746094 116.582031 120.359375 116.105469 C 121.535156 118.320312 122.65625 120.402344 123.699219 122.335938 C 125.097656 125.183594 126.351562 127.753906 127.492188 130.078125 C 129.792969 134.664062 131.457031 138.328125 132.855469 141.015625 C 135.734375 146.382812 136.609375 148.574219 136.28125 148.804688 C 135.964844 149.011719 134.460938 147.199219 131.09375 142.003906 C 129.425781 139.386719 127.566406 135.808594 125.136719 131.257812 C 123.957031 128.96875 122.65625 126.4375 121.207031 123.617188 C 119.894531 121.230469 118.472656 118.613281 116.953125 115.804688 C 112.324219 115.460938 107.617188 115.535156 103.847656 116.679688 C 104.507812 117.410156 105.113281 118.128906 105.660156 118.871094 C 106.558594 120.246094 107.484375 121.5 108.214844 122.777344 C 108.917969 124.054688 109.574219 125.28125 110.230469 126.4375 C 110.816406 127.617188 111.351562 128.738281 111.886719 129.808594 C 113.902344 134.042969 115.410156 137.34375 116.699219 139.75 C 117.34375 140.957031 117.839844 142.027344 118.339844 142.855469 C 118.851562 143.683594 119.226562 144.351562 119.519531 144.898438 C 120.089844 145.980469 120.261719 146.515625 120.101562 146.652344 C 119.957031 146.785156 119.496094 146.457031 118.621094 145.566406 C 118.183594 145.105469 117.660156 144.523438 117.003906 143.753906 C 116.371094 142.976562 115.75 141.941406 114.949219 140.785156 C 113.390625 138.402344 111.679688 135.128906 109.527344 130.988281 C 107.484375 127.121094 105.148438 122.363281 101.089844 117.824219 C 99.4375 118.734375 98.085938 119.976562 97.25 121.65625 C 96.738281 122.703125 96.277344 123.773438 95.839844 124.855469 C 96.945312 126.972656 97.964844 128.957031 98.902344 130.757812 C 100.007812 132.765625 101.003906 134.578125 101.917969 136.199219 C 103.617188 139.53125 105.039062 142.101562 105.855469 144.191406 C 107.484375 148.402344 107.875 150.082031 107.484375 150.230469 C 107.121094 150.363281 106.097656 148.976562 104.042969 145.105469 C 103.011719 143.171875 101.429688 140.726562 99.605469 137.511719 C 98.660156 135.882812 97.613281 134.117188 96.445312 132.132812 C 95.839844 131.027344 95.207031 129.832031 94.5625 128.59375 C 93.382812 132.546875 92.679688 136.648438 92.277344 140.859375 C 93.03125 142.5 93.941406 143.890625 94.683594 145.105469 C 95.632812 146.652344 96.375 147.90625 96.8125 148.949219 C 97.273438 149.984375 97.457031 150.765625 97.503906 151.273438 C 97.527344 151.796875 97.457031 152.066406 97.273438 152.140625 C 96.847656 152.296875 96.335938 151.628906 95.058594 149.972656 C 94.417969 149.132812 93.578125 148 92.496094 146.589844 C 92.3125 146.335938 92.105469 146.042969 91.925781 145.773438 C 91.5 154.21875 91.925781 162.847656 91.789062 171.0625 C 106.804688 160.535156 124.429688 155.179688 142.835938 154.195312 C 151.492188 153.722656 153.835938 150.144531 153.375 141.867188 C 153.179688 138.15625 152.730469 134.519531 153.300781 130.796875 Z M 158.652344 133.546875 C 158.796875 138.839844 159.804688 144.398438 158.820312 149.65625 C 156.765625 160.597656 147.355469 159.476562 138.191406 160.097656 C 121.171875 161.265625 103.910156 168.203125 90.71875 178.921875 C 88.96875 180.335938 85.675781 179.628906 85.847656 176.902344 C 86.710938 163.699219 85.710938 150.386719 87.21875 137.257812 C 87.960938 130.757812 89.273438 120.976562 94.257812 116.035156 C 103.363281 107.03125 120.234375 110.582031 131.53125 111.886719 C 139.101562 112.566406 153.449219 111.640625 157.910156 119.636719 C 160.582031 124.515625 158.492188 128.398438 158.652344 133.546875 " fill-opacity="1" fill-rule="nonzero"/>
  <path fill="#ffffff" d="M 149.375 247.398438 C 149.375 244.671875 149.933594 240.65625 148.355469 238.269531 C 146.445312 235.375 142.773438 235.070312 139.675781 235.835938 C 132.855469 237.503906 130.789062 241.238281 130.859375 247.980469 C 130.957031 254.527344 134.324219 259.042969 141.535156 258.203125 C 147.929688 257.472656 149.277344 253.128906 149.375 247.398438 Z M 141.703125 229.847656 C 152.765625 229.65625 155.125 237.941406 155.089844 247.398438 C 154.929688 256.390625 150.519531 264.566406 140.222656 263.945312 C 129.753906 263.351562 124.527344 256.828125 125.183594 246.582031 C 125.453125 242.480469 125.875 237.285156 129.414062 234.523438 C 132.914062 231.796875 137.195312 229.921875 141.703125 229.847656 " fill-opacity="1" fill-rule="nonzero"/>
  <path fill="#ffffff" d="M 135.808594 182.851562 C 136.003906 183.265625 132.539062 185.117188 126.921875 187.84375 C 121.378906 190.664062 113.695312 194.414062 108.078125 201.957031 C 105.429688 205.5625 103.179688 209.5625 101.527344 213.214844 C 99.875 216.949219 98.539062 220.382812 97.457031 223.339844 C 95.253906 229.203125 93.648438 232.769531 93.238281 232.613281 C 92.800781 232.476562 93.648438 228.667969 95.292969 222.609375 C 96.980469 216.585938 99.570312 208.019531 105.585938 199.9375 C 106.339844 199 107.082031 198.089844 107.824219 197.199219 C 108.722656 196.335938 109.625 195.484375 110.476562 194.65625 C 111.324219 193.78125 112.296875 193.171875 113.199219 192.492188 C 114.109375 191.820312 114.972656 191.152344 115.921875 190.640625 C 116.832031 190.105469 117.730469 189.570312 118.605469 189.082031 C 119.519531 188.644531 120.394531 188.21875 121.234375 187.804688 C 122.921875 186.964844 124.539062 186.371094 126.011719 185.761719 C 131.929688 183.535156 135.636719 182.453125 135.808594 182.851562 " fill-opacity="1" fill-rule="nonzero"/>
  <path fill="#ffffff" d="M 55.929688 246.375 C 55.964844 246.277344 56.183594 245.535156 56.183594 245.265625 C 56.183594 244.269531 55.6875 243.148438 54.6875 242.480469 C 54.152344 242.105469 53.644531 241.871094 53.4375 241.8125 C 53.363281 241.800781 53.339844 241.835938 53.304688 241.8125 C 53.265625 241.8125 53.265625 241.910156 53.230469 241.910156 C 53.207031 241.910156 53.207031 241.910156 53.207031 241.910156 L 53.195312 241.835938 C 53.167969 241.835938 53.167969 241.773438 53.167969 241.773438 C 53.132812 241.8125 53.121094 241.835938 53.097656 241.847656 C 53.074219 241.871094 53.074219 241.871094 53.074219 241.871094 C 53 242.007812 52.925781 242.152344 52.839844 242.296875 C 52.9375 242.214844 52.695312 243.222656 52.660156 243.078125 C 52.621094 243.417969 52.597656 243.769531 52.632812 244.125 C 52.632812 244.195312 52.632812 244.234375 52.632812 244.269531 C 52.632812 244.304688 52.660156 244.332031 52.660156 244.367188 C 52.695312 244.539062 52.730469 244.695312 52.792969 244.839844 C 53.535156 244.914062 54.277344 245.339844 54.761719 246.179688 C 54.882812 246.375 54.957031 246.496094 55.042969 246.628906 C 55.222656 246.691406 55.417969 246.789062 55.589844 246.863281 L 55.613281 246.863281 C 55.648438 246.765625 55.929688 246.375 55.929688 246.375 Z M 54.445312 236.152344 C 59.453125 237.015625 63.429688 243.113281 61.410156 247.980469 C 60.5 250.160156 58.894531 252.351562 56.367188 252.714844 C 54.652344 252.957031 53.195312 252.460938 51.976562 251.535156 C 48.769531 250.21875 46.679688 247.117188 46.910156 243.382812 C 47.152344 239.242188 49.898438 235.375 54.445312 236.152344 " fill-opacity="1" fill-rule="nonzero"/>
  <path fill="#ffffff" d="M 38.300781 235.105469 C 39.75 235.703125 40.757812 236.980469 40.308594 238.609375 C 39.929688 239.984375 38.230469 241.203125 36.808594 240.617188 C 36.320312 240.425781 35.835938 240.328125 35.371094 240.144531 C 33.925781 239.546875 32.917969 238.269531 33.378906 236.640625 C 33.753906 235.265625 35.457031 234.035156 36.878906 234.632812 C 37.355469 234.828125 37.851562 234.925781 38.300781 235.105469 " fill-opacity="1" fill-rule="nonzero"/>
  <path fill="#ffffff" d="M 16.785156 231.273438 C 16.710938 231.1875 16.617188 231.089844 16.53125 230.980469 C 16.566406 231.054688 16.628906 231.128906 16.664062 231.199219 C 16.710938 231.238281 16.75 231.261719 16.785156 231.273438 Z M 21.464844 228.085938 C 22.339844 229.375 21.707031 231.238281 20.433594 232.003906 C 19.421875 232.601562 18.316406 232.464844 17.441406 231.871094 C 16.054688 231.675781 14.949219 230.496094 14.949219 229.046875 C 14.949219 227.511719 16.25 226.175781 17.808594 226.1875 C 19.375 226.210938 20.566406 226.78125 21.464844 228.085938 " fill-opacity="1" fill-rule="nonzero"/>
</svg>